<svg width="51" height="48" viewBox="0 0 51 48" fill="none" xmlns="http://www.w3.org/2000/svg">
<g id="&#240;&#159;&#166;&#134; icon &#34;book 1&#34;">
<g id="Group">
<path id="Vector" d="M48.99 35.0752V6.71684C48.99 3.89744 46.6875 1.80638 43.8916 2.04133H43.7506C38.8167 2.46424 31.3218 4.97821 27.1397 7.60965L26.7402 7.86809C26.0589 8.291 24.9311 8.291 24.2498 7.86809L23.6624 7.51567C19.4803 4.90772 12.0089 2.41725 7.07492 2.01784C4.27901 1.78289 2 3.89743 2 6.69334V35.0752C2 37.3307 3.83261 39.4453 6.08813 39.7272L6.76949 39.8212C11.8679 40.5025 19.7387 43.087 24.2498 45.554L24.3437 45.601C24.9781 45.9534 25.9884 45.9534 26.5993 45.601C31.1103 43.1105 39.0046 40.5025 44.1265 39.8212L44.9019 39.7272C47.1574 39.4453 48.99 37.3307 48.99 35.0752Z" stroke="#ECEFF6" stroke-width="2.8" stroke-linecap="round" stroke-linejoin="round"/>
<path id="Vector_2" d="M25.4951 8.64383V43.8864" stroke="#ECEFF6" stroke-width="2.8" stroke-linecap="round" stroke-linejoin="round"/>
<path id="Vector_3" d="M15.5127 15.6921H10.2263" stroke="#ECEFF6" stroke-width="2.8" stroke-linecap="round" stroke-linejoin="round"/>
<path id="Vector_4" d="M17.2748 22.7403H10.2263" stroke="#ECEFF6" stroke-width="2.8" stroke-linecap="round" stroke-linejoin="round"/>
</g>
</g>
</svg>
