<svg width="45" height="45" viewBox="0 0 45 45" fill="none" xmlns="http://www.w3.org/2000/svg">
<g id="&#240;&#159;&#166;&#134; icon &#34;game&#34;">
<g id="Group">
<path id="Vector" d="M11.03 31.4161C10.6323 31.4161 10.2346 31.2696 9.92069 30.9556C9.31371 30.3487 9.31371 29.344 9.92069 28.737L16.3044 22.3533C16.9114 21.7463 17.916 21.7463 18.5231 22.3533C19.1301 22.9603 19.1301 23.9649 18.5231 24.5719L12.1393 30.9556C11.8253 31.2487 11.4277 31.4161 11.03 31.4161Z" fill="#ECEFF6"/>
<path id="Vector_2" d="M17.4773 31.4788C17.0796 31.4788 16.682 31.3323 16.368 31.0183L9.98429 24.6346C9.37731 24.0276 9.37731 23.023 9.98429 22.416C10.5913 21.809 11.5959 21.809 12.2029 22.416L18.5865 28.7997C19.1935 29.4067 19.1935 30.4114 18.5865 31.0183C18.2727 31.3323 17.875 31.4788 17.4773 31.4788Z" fill="#ECEFF6"/>
<path id="Vector_3" d="M25.7239 28.7791C24.5728 28.7791 23.61 27.8372 23.61 26.686C23.61 25.5349 24.5309 24.593 25.6821 24.593H25.7239C26.8751 24.593 27.817 25.5349 27.817 26.686C27.817 27.8372 26.896 28.7791 25.7239 28.7791Z" fill="#ECEFF6"/>
<path id="Vector_4" d="M33.9694 28.7791C32.8183 28.7791 31.8555 27.8372 31.8555 26.686C31.8555 25.5349 32.7764 24.593 33.9276 24.593H33.9694C35.1206 24.593 36.0624 25.5349 36.0624 26.686C36.0624 27.8372 35.1206 28.7791 33.9694 28.7791Z" fill="#ECEFF6"/>
<path id="Vector_5" d="M29.8257 32.9024C28.6745 32.9024 27.7327 31.9814 27.7327 30.8303V30.7884C27.7327 29.6373 28.6745 28.6954 29.8257 28.6954C30.9769 28.6954 31.9187 29.6373 31.9187 30.7884C31.9187 31.9396 30.9978 32.9024 29.8257 32.9024Z" fill="#ECEFF6"/>
<path id="Vector_6" d="M29.8257 24.6558C28.6745 24.6558 27.7327 23.7349 27.7327 22.5837V22.5419C27.7327 21.3907 28.6745 20.4489 29.8257 20.4489C30.9769 20.4489 31.9187 21.3907 31.9187 22.5419C31.9187 23.693 30.9978 24.6558 29.8257 24.6558Z" fill="#ECEFF6"/>
<path id="Vector_7" d="M28.7791 45H16.2209C4.85581 45 0 40.1442 0 28.7791V24.593C0 13.2279 4.85581 8.3721 16.2209 8.3721H28.7791C40.1442 8.3721 45 13.2279 45 24.593V28.7791C45 40.1442 40.1442 45 28.7791 45ZM16.2209 11.5116C6.57209 11.5116 3.13953 14.9442 3.13953 24.593V28.7791C3.13953 38.4279 6.57209 41.8605 16.2209 41.8605H28.7791C38.4279 41.8605 41.8605 38.4279 41.8605 28.7791V24.593C41.8605 14.9442 38.4279 11.5116 28.7791 11.5116H16.2209Z" fill="#ECEFF6"/>
<path id="Vector_8" d="M24.5727 11.5116H22.4797C20.4704 11.5116 18.8169 9.85814 18.8169 7.84884C18.8169 5.83953 20.4495 4.18605 22.4588 4.18605C22.7936 4.18605 23.0239 3.95581 23.0448 3.66279L23.0657 1.54884C23.0867 0.690698 23.7774 0 24.6355 0H24.6564C25.5146 0.0209302 26.2262 0.732558 26.2053 1.5907L26.1843 3.70465C26.1634 5.69302 24.5099 7.32558 22.5215 7.32558C22.1867 7.32558 21.9774 7.55581 21.9774 7.84884C21.9774 8.14186 22.2076 8.37209 22.5006 8.37209H24.5936C25.4518 8.37209 26.1634 9.08372 26.1634 9.94186C26.1634 10.8 25.4308 11.5116 24.5727 11.5116Z" fill="#ECEFF6"/>
</g>
</g>
</svg>
