<svg width="84" height="57" viewBox="0 0 84 57" fill="none" xmlns="http://www.w3.org/2000/svg">
<path d="M12.3651 32L8.13106 24.315H6.94206V32H1.98306V11.642H10.3061C11.9107 11.642 13.2737 11.9223 14.3951 12.483C15.5357 13.0437 16.3864 13.817 16.9471 14.803C17.5077 15.7697 17.7881 16.8523 17.7881 18.051C17.7881 19.4043 17.4014 20.6127 16.6281 21.676C15.8741 22.7393 14.7527 23.4933 13.2641 23.938L17.9621 32H12.3651ZM6.94206 20.806H10.0161C10.9247 20.806 11.6014 20.5837 12.0461 20.139C12.5101 19.6943 12.7421 19.066 12.7421 18.254C12.7421 17.4807 12.5101 16.8717 12.0461 16.427C11.6014 15.9823 10.9247 15.76 10.0161 15.76H6.94206V20.806ZM30.529 32.203C28.615 32.203 26.8557 31.7583 25.251 30.869C23.6657 29.9797 22.3994 28.7423 21.452 27.157C20.524 25.5523 20.06 23.7543 20.06 21.763C20.06 19.7717 20.524 17.9833 21.452 16.398C22.3994 14.8127 23.6657 13.5753 25.251 12.686C26.8557 11.7967 28.615 11.352 30.529 11.352C32.443 11.352 34.1927 11.7967 35.778 12.686C37.3827 13.5753 38.6394 14.8127 39.548 16.398C40.476 17.9833 40.94 19.7717 40.94 21.763C40.94 23.7543 40.476 25.5523 39.548 27.157C38.62 28.7423 37.3634 29.9797 35.778 30.869C34.1927 31.7583 32.443 32.203 30.529 32.203ZM30.529 27.679C32.153 27.679 33.4484 27.1377 34.415 26.055C35.401 24.9723 35.894 23.5417 35.894 21.763C35.894 19.965 35.401 18.5343 34.415 17.471C33.4484 16.3883 32.153 15.847 30.529 15.847C28.8857 15.847 27.571 16.3787 26.585 17.442C25.6184 18.5053 25.135 19.9457 25.135 21.763C25.135 23.561 25.6184 25.0013 26.585 26.084C27.571 27.1473 28.8857 27.679 30.529 27.679ZM56.0239 21.56C57.2032 21.8113 58.1505 22.401 58.8659 23.329C59.5812 24.2377 59.9389 25.2817 59.9389 26.461C59.9389 28.1623 59.3395 29.5157 58.1409 30.521C56.9615 31.507 55.3085 32 53.1819 32H43.6989V11.642H52.8629C54.9315 11.642 56.5459 12.1157 57.7059 13.063C58.8852 14.0103 59.4749 15.296 59.4749 16.92C59.4749 18.1187 59.1559 19.1143 58.5179 19.907C57.8992 20.6997 57.0679 21.2507 56.0239 21.56ZM48.6579 19.878H51.9059C52.7179 19.878 53.3365 19.704 53.7619 19.356C54.2065 18.9887 54.4289 18.457 54.4289 17.761C54.4289 17.065 54.2065 16.5333 53.7619 16.166C53.3365 15.7987 52.7179 15.615 51.9059 15.615H48.6579V19.878ZM52.3119 27.998C53.1432 27.998 53.7812 27.8143 54.2259 27.447C54.6899 27.0603 54.9219 26.5093 54.9219 25.794C54.9219 25.0787 54.6802 24.518 54.1969 24.112C53.7329 23.706 53.0852 23.503 52.2539 23.503H48.6579V27.998H52.3119ZM72.4431 32.203C70.5291 32.203 68.7698 31.7583 67.1651 30.869C65.5798 29.9797 64.3134 28.7423 63.3661 27.157C62.4381 25.5523 61.9741 23.7543 61.9741 21.763C61.9741 19.7717 62.4381 17.9833 63.3661 16.398C64.3134 14.8127 65.5798 13.5753 67.1651 12.686C68.7698 11.7967 70.5291 11.352 72.4431 11.352C74.3571 11.352 76.1068 11.7967 77.6921 12.686C79.2968 13.5753 80.5534 14.8127 81.4621 16.398C82.3901 17.9833 82.8541 19.7717 82.8541 21.763C82.8541 23.7543 82.3901 25.5523 81.4621 27.157C80.5341 28.7423 79.2774 29.9797 77.6921 30.869C76.1068 31.7583 74.3571 32.203 72.4431 32.203ZM72.4431 27.679C74.0671 27.679 75.3624 27.1377 76.3291 26.055C77.3151 24.9723 77.8081 23.5417 77.8081 21.763C77.8081 19.965 77.3151 18.5343 76.3291 17.471C75.3624 16.3883 74.0671 15.847 72.4431 15.847C70.7998 15.847 69.4851 16.3787 68.4991 17.442C67.5324 18.5053 67.0491 19.9457 67.0491 21.763C67.0491 23.561 67.5324 25.0013 68.4991 26.084C69.4851 27.1473 70.7998 27.679 72.4431 27.679ZM72.4141 8.104L67.9191 10.482V7.06L72.4141 4.769L76.9091 7.06V10.482L72.4141 8.104Z" fill="#292E37"/>
<path d="M3.41819 42.81V45.26H6.70819V46.814H3.41819V49.404H7.12819V51H1.45819V41.214H7.12819V42.81H3.41819ZM12.3254 41.228C13.352 41.228 14.2527 41.4287 15.0274 41.83C15.8114 42.2313 16.4134 42.8053 16.8334 43.552C17.2627 44.2893 17.4774 45.148 17.4774 46.128C17.4774 47.108 17.2627 47.9667 16.8334 48.704C16.4134 49.432 15.8114 49.9967 15.0274 50.398C14.2527 50.7993 13.352 51 12.3254 51H8.90936V41.228H12.3254ZM12.2554 49.334C13.282 49.334 14.0754 49.054 14.6354 48.494C15.1954 47.934 15.4754 47.1453 15.4754 46.128C15.4754 45.1107 15.1954 44.3173 14.6354 43.748C14.0754 43.1693 13.282 42.88 12.2554 42.88H10.8694V49.334H12.2554ZM20.8765 41.228V47.276C20.8765 47.9387 21.0492 48.4473 21.3945 48.802C21.7398 49.1473 22.2252 49.32 22.8505 49.32C23.4852 49.32 23.9752 49.1473 24.3205 48.802C24.6658 48.4473 24.8385 47.9387 24.8385 47.276V41.228H26.8125V47.262C26.8125 48.0927 26.6305 48.7973 26.2665 49.376C25.9118 49.9453 25.4312 50.3747 24.8245 50.664C24.2272 50.9533 23.5598 51.098 22.8225 51.098C22.0945 51.098 21.4318 50.9533 20.8345 50.664C20.2465 50.3747 19.7798 49.9453 19.4345 49.376C19.0892 48.7973 18.9165 48.0927 18.9165 47.262V41.228H20.8765ZM28.2302 46.1C28.2302 45.1387 28.4449 44.28 28.8742 43.524C29.3129 42.7587 29.9056 42.166 30.6522 41.746C31.4082 41.3167 32.2529 41.102 33.1862 41.102C34.2782 41.102 35.2349 41.382 36.0562 41.942C36.8776 42.502 37.4516 43.2767 37.7782 44.266H35.5242C35.3002 43.7993 34.9829 43.4493 34.5722 43.216C34.1709 42.9827 33.7042 42.866 33.1722 42.866C32.6029 42.866 32.0942 43.0013 31.6462 43.272C31.2076 43.5333 30.8622 43.9067 30.6102 44.392C30.3676 44.8773 30.2462 45.4467 30.2462 46.1C30.2462 46.744 30.3676 47.3133 30.6102 47.808C30.8622 48.2933 31.2076 48.6713 31.6462 48.942C32.0942 49.2033 32.6029 49.334 33.1722 49.334C33.7042 49.334 34.1709 49.2173 34.5722 48.984C34.9829 48.7413 35.3002 48.3867 35.5242 47.92H37.7782C37.4516 48.9187 36.8776 49.698 36.0562 50.258C35.2442 50.8087 34.2876 51.084 33.1862 51.084C32.2529 51.084 31.4082 50.874 30.6522 50.454C29.9056 50.0247 29.3129 49.432 28.8742 48.676C28.4449 47.92 28.2302 47.0613 28.2302 46.1ZM45.4443 49.138H41.5523L40.9083 51H38.8503L42.3643 41.214H44.6463L48.1603 51H46.0883L45.4443 49.138ZM44.9123 47.57L43.4983 43.482L42.0843 47.57H44.9123Z" fill="#00ACFF"/>
</svg>
